# xmcd
#
# Track frame offsets: 
#        150
#        15996
#        32003
#        48512
#        65332
#        79378
#        97330
#        115663
#        131969
#        146228
#        160348
#        178013
#        193973
#        210785
#
# Disc length: 3112 seconds
#
# Revision: 0
# Processed by: cddbd v1.4PL0 Copyright (c) Steve Scherf et al.
# Submitted via: ExactAudioCopy v0.90b3
#
DISCID=ca0c260e
DTITLE=Ted Roddy - Channelin' E: In the Spirit of the Memphis King
DYEAR=2002
DGENRE=R&B
TTITLE0=Builder of Your Dreams
TTITLE1=Nobody's Fool
TTITLE2=Mobile Blue
TTITLE3=You've Got Your Troubles
TTITLE4=Home in my Hand
TTITLE5=River Deep Mountain High
TTITLE6=Sweet Inspiration
TTITLE7=A Woman Left Lonely
TTITLE8=Always Something There to Remind Me
TTITLE9=That's How I Got to Memphis
TTITLE10=Mississippi Delta
TTITLE11=Bedside of a Neighbor
TTITLE12=Lay Lady Lay
TTITLE13=Suspicious Minds
EXTD=
EXTT0=
EXTT1=
EXTT2=
EXTT3=
EXTT4=
EXTT5=
EXTT6=
EXTT7=
EXTT8=
EXTT9=
EXTT10=
EXTT11=
EXTT12=
EXTT13=
PLAYORDER=
